<?xml version="1.0" encoding="UTF-8"?>
<svg version="1.1" xmlns="http://www.w3.org/2000/svg" width="16" height="16">
<path d="M0 0 C5.28 0 10.56 0 16 0 C16 5.28 16 10.56 16 16 C10.72 16 5.44 16 0 16 C0 10.72 0 5.44 0 0 Z " fill="#424242" transform="translate(0,0)"/>
<path d="M0 0 C5.28 0 10.56 0 16 0 C16 5.28 16 10.56 16 16 C10.72 16 5.44 16 0 16 C0 10.72 0 5.44 0 0 Z M3 1 C3.66 2.32 4.32 3.64 5 5 C4.34 5 3.68 5 3 5 C2.34 4.34 1.68 3.68 1 3 C0.91868537 4.43655854 0.86066441 5.8744483 0.8125 7.3125 C0.77769531 8.11300781 0.74289063 8.91351563 0.70703125 9.73828125 C0.82824956 12.04854073 0.82824956 12.04854073 2.25 13.78125 C4.41126777 15.28641862 5.58222482 15.31562829 8.1875 15.1875 C9.445625 15.125625 10.70375 15.06375 12 15 C11.34 14.34 10.68 13.68 10 13 C10.99 12.01 11.98 11.02 13 10 C13.66 10.66 14.32 11.32 15 12 C15 9.03 15 6.06 15 3 C14.34 3 13.68 3 13 3 C13 2.34 13 1.68 13 1 C9.7 1 6.4 1 3 1 Z " fill="#0B0B0B" transform="translate(0,0)"/>
<path d="M0 0 C0.99 0 1.98 0 3 0 C3 5.28 3 10.56 3 16 C-3 16 -3 16 -4.875 14.5 C-5.24625 14.005 -5.6175 13.51 -6 13 C-5.236875 12.649375 -4.47375 12.29875 -3.6875 11.9375 C-0.09141882 9.34497636 0.52103787 7.12552594 2 3 C1.34 3 0.68 3 0 3 C0 2.01 0 1.02 0 0 Z " fill="#0E0E0E" transform="translate(13,0)"/>
<path d="M0 0 C3 2 3 2 3.6875 5.125 C3.8421875 6.548125 3.8421875 6.548125 4 8 C5.175625 8.1546875 5.175625 8.1546875 6.375 8.3125 C9 9 9 9 11 12 C3.52767962 12.36749117 3.52767962 12.36749117 1.25 10.78125 C-0.36575414 8.47880036 -0.30855839 7.09684299 -0.1875 4.3125 C-0.16042969 3.50425781 -0.13335937 2.69601563 -0.10546875 1.86328125 C-0.07066406 1.24839844 -0.03585938 0.63351563 0 0 Z " fill="#B7B7B7" transform="translate(1,3)"/>
<path d="M0 0 C3.3 0 6.6 0 10 0 C10 0.66 10 1.32 10 2 C10.66 2 11.32 2 12 2 C12 4.97 12 7.94 12 11 C9 9 9 9 8.3125 6.375 C8.209375 5.59125 8.10625 4.8075 8 4 C7.05125 3.896875 6.1025 3.79375 5.125 3.6875 C2 3 2 3 0 0 Z " fill="#CACACA" transform="translate(3,1)"/>
<path d="M0 0 C0.33 0 0.66 0 1 0 C1.04898438 0.62648437 1.09796875 1.25296875 1.1484375 1.8984375 C1.22320312 2.71570313 1.29796875 3.53296875 1.375 4.375 C1.44460937 5.18710938 1.51421875 5.99921875 1.5859375 6.8359375 C1.82892588 9.20334191 1.82892588 9.20334191 4 11 C5.98821313 11.39764263 7.98944339 11.73775349 10 12 C10 12.33 10 12.66 10 13 C6.7 13 3.4 13 0 13 C0 8.71 0 4.42 0 0 Z " fill="#000000" transform="translate(0,3)"/>
</svg>
